<?xml version="1.0" standalone="no"?><!DOCTYPE svg PUBLIC "-//W3C//DTD SVG 1.1//EN" "http://www.w3.org/Graphics/SVG/1.1/DTD/svg11.dtd"><svg t="1543502384199" class="icon" style="" viewBox="0 0 1024 1024" version="1.1" xmlns="http://www.w3.org/2000/svg" p-id="1810" xmlns:xlink="http://www.w3.org/1999/xlink" width="200" height="200"><defs><style type="text/css"></style></defs><path d="M176.00001 415.999987h671.99998c26.591999 0 47.999999 20.607999 47.999998 46.207999v483.583984c0 25.599999-21.407999 46.207999-47.999998 46.207999h-671.99998c-26.591999 0-47.999999-20.607999-47.999998-46.207999V462.207986c0-25.599999 21.407999-46.207999 47.999998-46.207999z" fill="#FD0437" p-id="1811"></path><path d="M831.99999 415.999987v415.999987c0 88.639997-71.359998 159.999995-159.999995 159.999995h175.999995c26.591999 0 47.999999-20.575999 47.999998-46.207999V462.239986c0-25.599999-21.407999-46.239999-47.999998-46.239999H831.99999zM155.616011 987.519969c6.208 2.784 13.056 4.48 20.383999 4.48H192.00001a160.959995 160.959995 0 0 1-36.383999-4.48z" fill="#D60724" p-id="1812"></path><path d="M340.960005 629.15198l-15.007999-9.375999-15.04 9.407999 4.32-17.183999-13.599999-11.392 17.695999-1.216 6.592-16.415999 6.656 16.415999 17.663999 1.216-13.568 11.392zM247.424008 571.359982l-22.527999-14.079999-22.495999 14.111999 6.399999-25.791999-20.351999-17.024 26.495999-1.855999 9.92-24.64 9.952 24.64 26.527999 1.791999-20.384 17.088zM247.424008 710.047978l-22.527999-14.08-22.495999 14.08 6.399999-25.759999-20.351999-17.056 26.495999-1.856 9.92-24.639999 9.952 24.639999 26.527999 1.792-20.384 17.088zM247.424008 837.119974l-22.527999-14.08-22.495999 14.144 6.399999-25.791999-20.351999-17.056 26.495999-1.856 9.92-24.639999 9.952 24.639999 26.527999 1.824-20.384 17.056zM247.424008 975.80797l-22.527999-14.08-22.495999 14.112 6.399999-25.792-20.351999-17.055999 26.495999-1.856 9.92-24.639999 9.952 24.639999 26.527999 1.824-20.384 17.087999zM340.960005 894.943972l-15.007999-9.408-15.04 9.408 4.32-17.183999-13.599999-11.36 17.695999-1.216 6.592-16.448 6.656 16.448 17.663999 1.216-13.568 11.36zM340.960005 762.047976l-15.007999-9.408-15.04 9.408 4.32-17.183999-13.599999-11.36 17.695999-1.216 6.592-16.447999 6.656 16.447999 17.663999 1.216-13.568 11.392zM548.959999 629.15198l-15.04-9.375999-14.975999 9.407999 4.288-17.183999-13.6-11.392 17.664-1.216 6.623999-16.415999 6.624 16.415999 17.664 1.216-13.568 11.392zM432.320002 571.359982l-22.527999-14.079999-22.495999 14.111999 6.4-25.791999-20.352-17.024 26.496-1.855999 9.919999-24.64 9.92 24.64 26.559999 1.791999-20.383999 17.088zM432.320002 710.047978l-22.527999-14.08-22.495999 14.08 6.4-25.759999-20.352-17.056 26.496-1.856 9.919999-24.639999 9.92 24.639999 26.559999 1.792-20.383999 17.088zM432.320002 837.119974l-22.527999-14.08-22.495999 14.144 6.4-25.791999-20.352-17.056 26.496-1.856 9.919999-24.639999 9.92 24.639999 26.559999 1.824-20.383999 17.056zM432.320002 975.80797l-22.527999-14.08-22.495999 14.112 6.4-25.792-20.352-17.055999 26.496-1.856 9.919999-24.639999 9.92 24.639999 26.559999 1.824-20.383999 17.087999zM548.959999 894.943972l-15.04-9.408-14.975999 9.408 4.288-17.183999-13.6-11.36 17.664-1.216 6.623999-16.448 6.624 16.448 17.664 1.216-13.568 11.36zM548.959999 762.047976l-15.04-9.408-14.975999 9.408 4.288-17.183999-13.6-11.36 17.664-1.216 6.623999-16.447999 6.624 16.447999 17.664 1.216-13.568 11.392zM756.959992 629.15198l-15.007999-9.375999-15.04 9.407999 4.32-17.183999-13.599999-11.392 17.695999-1.216 6.592-16.415999 6.656 16.415999 17.663999 1.216-13.568 11.392zM663.423995 571.359982l-22.527999-14.079999-22.495999 14.111999 6.399999-25.791999-20.351999-17.024 26.495999-1.855999 9.92-24.64 9.952 24.64 26.527999 1.791999-20.384 17.088zM663.423995 710.047978l-22.527999-14.08-22.495999 14.08 6.399999-25.759999-20.351999-17.056 26.495999-1.856 9.92-24.639999 9.952 24.639999 26.527999 1.792-20.384 17.088zM663.423995 837.119974l-22.527999-14.08-22.495999 14.144 6.399999-25.791999-20.351999-17.056 26.495999-1.856 9.92-24.639999 9.952 24.639999 26.527999 1.824-20.384 17.056zM663.423995 975.80797l-22.527999-14.08-22.495999 14.112 6.399999-25.792-20.351999-17.055999 26.495999-1.856 9.92-24.639999 9.952 24.639999 26.527999 1.824-20.384 17.087999zM756.959992 894.943972l-15.007999-9.408-15.04 9.408 4.32-17.183999-13.599999-11.36 17.695999-1.216 6.592-16.448 6.656 16.448 17.663999 1.216-13.568 11.36zM756.959992 762.047976l-15.007999-9.408-15.04 9.408 4.32-17.183999-13.599999-11.36 17.695999-1.216 6.592-16.447999 6.656 16.447999 17.663999 1.216-13.568 11.392zM848.319989 571.359982l-22.527999-14.079999-22.527999 14.111999 6.464-25.791999-20.384-17.024 26.496-1.855999 9.919999-24.64 9.92 24.64 26.559999 1.791999-20.383999 17.088zM848.319989 710.047978l-22.527999-14.08-22.527999 14.08 6.464-25.759999-20.384-17.056 26.496-1.856 9.919999-24.639999 9.92 24.639999 26.559999 1.824-20.383999 17.056z" fill="#FDA816" p-id="1813"></path><path d="M831.99999 517.567984v43.615998l16.319999 10.176-6.431999-25.727999 20.351999-17.12-26.559999-1.823999-3.68-9.152z m0 138.687995v43.551999l16.319999 10.24-6.431999-25.791999 20.351999-17.088-26.559999-1.824-3.68-9.12z m0 127.103997v43.583998l16.319999 10.24-6.431999-25.823999 20.351999-17.056-26.559999-1.824L831.99999 783.359976z m0 138.623995v23.839999c0 6.24-1.312 12.128-3.616 17.536l19.935999 12.448-6.431999-25.76 20.351999-17.055999-26.559999-1.824-3.68-9.184z" fill="#FF8901" p-id="1814"></path><path d="M848.319989 837.119974l-22.527999-14.08-22.527999 14.144 6.464-25.791999-20.384-17.056 26.496-1.856 9.919999-24.639999 9.92 24.639999 26.559999 1.824-20.383999 17.056z" fill="#FDA816" p-id="1815"></path><path d="M848.319989 975.80797l-22.527999-14.08-22.527999 14.112 6.464-25.792-20.384-17.055999 26.496-1.824 9.919999-24.639999 9.92 24.639999 26.559999 1.792-20.383999 17.087999z" fill="#FF8901" p-id="1816"></path><path d="M128.000012 287.999991h767.999976c17.727999 0 31.999999 14.272 31.999999 31.999999v127.999996c0 17.727999-14.272 31.999999-31.999999 31.999999H128.000012c-17.727999 0-31.999999-14.272-31.999999-31.999999v-127.999996c0-17.727999 14.272-31.999999 31.999999-31.999999z" fill="#D60724" p-id="1817"></path><path d="M831.99999 287.999991c17.727999 0 31.999999 14.272 31.999999 31.999999v127.999996c0 17.727999-14.272 31.999999-31.999999 31.999999h63.999998c17.727999 0 31.999999-14.272 31.999999-31.999999v-127.999996c0-17.727999-14.272-31.999999-31.999999-31.999999h-63.999998z" fill="#C2001A" p-id="1818"></path><path d="M174.560011 457.919986l-22.528-14.08-22.527999 14.112 6.432-25.76-20.384-17.055999 26.528-1.856 9.919999-24.639999 9.92 24.639999 26.527999 1.792-20.351999 17.087999zM195.32801 352.191989l15.039999-9.376 15.008 9.408-4.288-17.183999 13.568-11.392-17.664-1.216-6.624-16.416-6.623999 16.416-17.664 1.216 13.568 11.392zM363.008005 363.743989l-22.56-14.08-22.495999 14.112 6.432-25.792-20.384-17.055999 26.528-1.856 9.919999-24.639999 9.92 24.639999 26.527999 1.824-20.383999 17.087999zM266.464008 457.919986l15.007999-9.376 15.04 9.408-4.32-17.184 13.599999-11.359999-17.695999-1.216-6.592-16.448-6.656 16.448-17.663999 1.216 13.568 11.359999zM448.320002 457.919986l-22.527999-14.08-22.496 14.112 6.4-25.76-20.351999-17.055999 26.495999-1.856 9.92-24.639999 9.951999 24.639999 26.528 1.792-20.384 17.087999zM469.120001 352.191989l15.04-9.376 14.975999 9.408-4.287999-17.183999 13.599999-11.392-17.663999-1.216-6.624-16.416-6.624 16.416-17.695999 1.216 13.599999 11.392zM636.799996 363.743989l-22.559999-14.08-22.527999 14.112 6.463999-25.792-20.383999-17.055999 26.495999-1.856 9.92-24.639999 9.919999 24.639999 26.56 1.824-20.384 17.087999zM540.223999 457.919986l15.04-9.376 15.007999 9.408-4.288-17.184 13.568-11.359999-17.664-1.216-6.623999-16.448-6.624 16.448-17.664 1.216 13.568 11.359999zM729.215993 457.919986l-22.527999-14.08-22.527999 14.112 6.431999-25.76-20.351999-17.055999 26.495999-1.856 9.92-24.639999 9.92 24.639999 26.559999 1.792-20.384 17.087999zM750.015993 352.191989l15.039999-9.376 14.976 9.408-4.288-17.183999 13.599999-11.392-17.695999-1.216-6.592-16.416-6.624 16.416-17.695999 1.216 13.567999 11.392zM821.11999 457.919986l15.04-9.376 14.975999 9.408-4.287999-17.184 13.599999-11.359999-17.663999-1.216-6.624-16.448-6.624 16.448-17.695999 1.216 13.599999 11.359999zM96.000013 335.67999v0.639999l18.495999-15.423999-18.335999-1.088-0.16 15.904z m0 9.759999v15.456l4.608 2.848L96.000013 345.407989z" fill="#FF9A00" p-id="1819"></path><path d="M480.000001 287.551991v704.415978h63.999998V287.551991h-63.999998z" fill="#0088FE" p-id="1820"></path><path d="M488.512001 223.967993c-93.695997 0-170.399995 76.671998-170.399995 170.367995l38.399999-35.199999 25.599999 35.199999a105.919997 105.919997 0 0 1 106.399997-106.367997zM535.423999 223.967993c93.695997 0 170.335995 76.671998 170.335995 170.367995l-35.199999-31.999999-28.799999 31.999999a105.855997 105.855997 0 0 0-106.335997-106.367997z" fill="#0088FE" p-id="1821"></path><path d="M488.512001 223.999993c-67.039998 0-125.183996 39.359999-152.959995 95.999997h76.767997a105.919997 105.919997 0 0 1 76.159998-31.999999V223.999993z m46.911998 0v63.999998c30.047999 0 56.895998 12.256 76.159998 31.999999h76.735997c-27.743999-56.639998-85.855997-95.999997-152.895995-95.999997z" fill="#006EF4" p-id="1822"></path><path d="M917.663987 363.743989l-22.527999-14.08-22.527999 14.112 6.432-25.792-20.384-17.055999 26.527999-1.856 9.92-24.639999 9.92 24.639999 22.847999 1.6 0.096 3.2-16.767999 14.079999z" fill="#FF8901" p-id="1823"></path><path d="M384.000004 72.095998c-60.607998 0-111.999997 47.775999-111.999997 107.935996C272.000007 240.191992 323.392006 287.999991 384.000004 287.999991h127.999996a31.999999 31.999999 0 0 0 30.815999-40.671999c-10.336-36.607999-17.919999-76.383998-37.823999-111.519996-19.871999-35.135999-58.783998-63.679998-111.359996-63.679998H384.000004z m0 63.999998h9.6c33.855999 0 43.359999 9.44 55.711998 31.263999 7.2 12.672 12.736 36.383999 18.559999 56.639998H384.000004c-28.031999 0-47.999999-19.967999-47.999999-43.967999 0-23.999999 19.967999-43.935999 47.999999-43.935998z" fill="#0088FE" p-id="1824"></path><path d="M630.399996 72.095998c-52.607998 0-91.519997 28.543999-111.391996 63.679998-19.903999 35.135999-27.487999 74.879998-37.823999 111.519996A31.999999 31.999999 0 0 0 512 287.967991h127.999996c60.607998 0 111.999997-47.775999 111.999997-107.935997 0-60.159998-51.391998-107.935997-111.999997-107.935996h-9.6z m0 63.999998h9.6c28.031999 0 47.999999 19.967999 47.999999 43.935998C687.999995 204.031994 668.031995 223.999993 639.999996 223.999993h-83.871997c5.824-20.223999 11.36-43.935999 18.559999-56.639998 12.352-21.791999 21.855999-31.231999 55.679998-31.231999z" fill="#0088FE" p-id="1825"></path></svg>